<?xml version="1.0" standalone="no"?>
<!DOCTYPE svg PUBLIC "-//W3C//DTD SVG 20010904//EN"
 "http://www.w3.org/TR/2001/REC-SVG-20010904/DTD/svg10.dtd">
<svg version="1.0" xmlns="http://www.w3.org/2000/svg"
 width="445.000000pt" height="445.000000pt" viewBox="0 0 445.000000 445.000000"
 preserveAspectRatio="xMidYMid meet">
<metadata>
Created by potrace 1.14, written by Peter Selinger 2001-2017
</metadata>
<g transform="translate(0.000000,445.000000) scale(0.100000,-0.100000)"
fill="#000000" stroke="none">
<path d="M2232 4258 c-9 -9 -12 -370 -12 -1565 l0 -1553 35 0 35 0 0 1553 c0
1584 0 1577 -35 1577 -6 0 -16 -5 -23 -12z"/>
<path d="M2340 3805 l0 -207 23 5 c12 3 90 18 172 32 83 14 249 44 370 66 121
23 296 54 390 70 93 17 171 32 173 34 5 5 -59 17 -588 111 -140 24 -302 53
-360 64 -58 11 -122 22 -142 26 l-38 6 0 -207z"/>
<path d="M2089 3352 c-36 -42 -155 -180 -265 -307 -109 -126 -268 -311 -354
-410 -210 -244 -654 -760 -937 -1088 -128 -148 -233 -273 -233 -278 0 -4 420
-7 932 -6 l933 2 3 1083 c1 595 -1 1082 -5 1082 -5 0 -38 -35 -74 -78z"/>
<path d="M2342 2258 l3 -993 622 -2 621 -1 7 95 c13 170 -23 451 -83 643 -138
445 -420 805 -844 1078 -81 52 -306 172 -323 172 -3 0 -4 -447 -3 -992z"/>
<path d="M460 1078 c0 -18 60 -125 108 -193 101 -143 267 -299 447 -420 l83
-55 1120 2 1119 3 86 44 c98 49 242 165 333 267 119 135 264 329 264 353 0 8
-534 11 -1780 10 -1052 -1 -1780 -5 -1780 -11z"/>
</g>
</svg>
